<svg
   width="16"
   height="16"
   version="1"
   viewBox="0 0 16 16"
   fill="none"
   xmlns="http://www.w3.org/2000/svg">
  <g id="pop-os">
  <g id="Group">
  <path
     id="Vector"
     d="M 7.9999499,0 A 8.0003816,8.0004206 0 0 0 0,8 8.0003816,8.0004206 0 0 0 7.9999499,16 8.0003816,8.0004206 0 0 0 16,8 8.0003816,8.0004206 0 0 0 7.9999499,0 Z M 6.22446,2.0010901 C 6.9390699,1.98519 7.2385899,2.14344 7.6541301,2.39738 8.28568,2.7941401 8.73362,3.4128 8.89985,4.1269899 9.0659801,4.84118 9.0161,5.3985201 8.81695,5.7952999 v 0.0306 C 8.418,6.6353099 7.7531601,7.28626 6.8224299,7.60368 L 7.6215601,9.5872601 C 7.7711,9.9522901 7.9042699,10.332791 7.78791,10.68195 7.6715601,11.03111 7.1389899,11.143861 6.7567399,10.76295 6.02543,10.01702 3.5657099,5.3190001 3.38288,4.96985 3.2000501,4.6206901 2.9997401,4.3337799 2.9997401,3.98462 3.0165401,3.46088 3.8650101,2.9210901 4.28055,2.65129 4.69609,2.3814901 5.51001,2.0169099 6.2247399,2.00104 Z M 5.52162,3.45265 C 5.0747,3.53145 5.34104,4.50168 5.44312,4.77942 5.5594801,5.0968401 5.8757,5.7619499 6.2247701,6.0952401 c 0.083,0.0794 0.16512,0.1439599 0.26488,0.1598198 0.0998,0.0159 0.30008,-0.0788 0.3831499,-0.2057999 C 6.9558,5.9223 6.97368,5.82593 6.97368,5.69896 A 2.1274086,2.0314659 0 0 0 6.93898,4.93705 C 6.7893301,4.4450599 6.4743399,3.9692999 6.0588,3.6518901 5.9759001,3.58839 5.87519,3.50847 5.7588401,3.47674 5.66354,3.44704 5.58632,3.44144 5.5224299,3.45264 Z m 6.478359,0.56487 a 1.4995301,1.5659325 0 0 1 0.814481,0.41817 c 0.19987,0.1913899 0.2177,0.4002101 0.151001,0.66119 -0.06611,0.2609899 -0.300531,0.81712 -0.48381,1.2173 L 12.01533,7.2359 c -0.899789,1.67034 -1.0834,1.84496 -1.33338,1.74057 -0.299849,-0.1217899 -0.19997,-1.7913301 0.0829,-3.82704 0.08299,-0.55678 0.21792,-0.8350801 0.367898,-0.9742699 0.149881,-0.1392 0.600392,-0.20984 0.866952,-0.1576401 z m -1.56979,6.00328 c 0.441542,-0.12177 0.640851,0.31238 0.549491,0.63712 -0.03031,0.121769 -0.10761,0.230101 -0.229799,0.297751 -0.121841,0.06759 -0.4106,0.06699 -0.578071,-0.0547 -0.16736,-0.121771 -0.19886,-0.323682 -0.15324,-0.48604 0.046,-0.162361 0.19852,-0.339961 0.411619,-0.394081 z M 4.64593,12 h 6.71039 c 0.357361,0 0.643659,0.22436 0.643659,0.50137 0,0.277021 -0.286298,0.49918 -0.643659,0.49918 H 4.64593 c -0.35736,0 -0.6459001,-0.222159 -0.6459001,-0.49918 C 4.0000299,12.22436 4.28857,12 4.64593,12 Z"
     style="fill:#232323;stroke-width:1.00005" />
  </g>
  </g>
</svg>